<?xml version="1.0" encoding="UTF-8"?><svg id="b" xmlns="http://www.w3.org/2000/svg" viewBox="0 0 258 37.77"><defs><style>.d{fill:#1a1a1a;}</style></defs><g id="c"><g><rect class="d" x="30.73" y="31.54" width=".82" height=".82"/><rect class="d" x="31.97" y="31.54" width=".82" height=".82"/><rect class="d" x="30.73" y="32.77" width=".82" height=".82"/><rect class="d" x="31.97" y="32.77" width=".82" height=".82"/><polygon class="d" points="27.97 34.73 31.45 27.22 35.51 34.73 36.46 34.73 31.4 25.36 27.05 34.73 27.97 34.73"/><polygon class="d" points="29.02 22.76 31.06 26.49 31.79 26.09 29.46 21.82 29.02 22.76"/><polygon class="d" points="11.53 33.9 4.48 33.9 20.24 4.58 19.77 3.71 3.09 34.73 4.2 34.73 12.02 34.73 23.87 13.09 27.22 19.33 19.06 34.73 20 34.73 28.16 19.33 23.88 11.34 11.53 33.9"/><path class="d" d="m39.34,37.77H0V0h39.34v37.77Zm-38.67-.67h37.99V.67H.67v36.42Z"/><g><path d="m46.24,25.5l.58-.96c1.21,1.26,3.46,2.22,5.84,2.22,3.54,0,5.1-1.54,5.1-3.46,0-5.3-11.04-2.12-11.04-8.64,0-2.5,1.92-4.7,6.26-4.7,1.95,0,3.97.61,5.33,1.59l-.48,1.04c-1.47-1.01-3.26-1.49-4.85-1.49-3.44,0-4.98,1.59-4.98,3.54,0,5.3,11.04,2.17,11.04,8.59,0,2.5-2,4.67-6.37,4.67-2.63,0-5.15-.99-6.44-2.4Z"/><path d="m74.56,14.58v13.19h-1.21v-2.83c-.86,1.84-2.65,2.93-4.98,2.93-3.36,0-5.51-1.89-5.51-5.58v-7.7h1.26v7.6c0,2.98,1.59,4.55,4.34,4.55,2.98,0,4.82-2,4.82-5.13v-7.02h1.26Z"/><path d="m93.05,21.18c0,3.97-2.8,6.69-6.52,6.69-2.32,0-4.29-1.14-5.35-3.11v7.91h-1.26V14.58h1.21v3.11c1.04-2.02,3.03-3.21,5.41-3.21,3.71,0,6.52,2.75,6.52,6.69Zm-1.26,0c0-3.31-2.3-5.56-5.33-5.56s-5.3,2.25-5.3,5.56,2.27,5.56,5.3,5.56,5.33-2.25,5.33-5.56Z"/><path d="m108.1,21.48h-11.34c.13,3.13,2.42,5.25,5.58,5.25,1.67,0,3.21-.61,4.22-1.84l.73.83c-1.16,1.41-2.98,2.15-4.98,2.15-3.99,0-6.79-2.78-6.79-6.69s2.7-6.69,6.32-6.69,6.29,2.73,6.29,6.64c0,.1-.03.23-.03.35Zm-11.32-.99h10.1c-.18-2.85-2.25-4.9-5.05-4.9s-4.85,2.02-5.05,4.9Z"/><path d="m118.28,14.48v1.24c-.1,0-.2-.03-.3-.03-2.93,0-4.67,1.95-4.67,5.2v6.87h-1.26v-13.19h1.21v2.88c.81-1.92,2.55-2.98,5.03-2.98Z"/><path d="m124.5,11.25h-6.37v-1.16h14.02v1.16h-6.37v16.52h-1.29V11.25Z"/><path d="m134.17,10.37c0-.56.45-1.04,1.04-1.04s1.04.45,1.04,1.01-.45,1.04-1.04,1.04-1.04-.45-1.04-1.01Zm.4,4.22h1.26v13.19h-1.26v-13.19Z"/><path d="m152.97,20.07v7.7h-1.26v-7.6c0-2.98-1.59-4.55-4.27-4.55-3.11,0-5,2-5,5.13v7.02h-1.26v-13.19h1.21v2.85c.88-1.84,2.73-2.96,5.23-2.96,3.21,0,5.35,1.89,5.35,5.58Z"/><path d="m168.5,14.58l-6.77,14.98c-1.06,2.42-2.37,3.21-4.12,3.21-1.19,0-2.3-.4-3.06-1.19l.63-.96c.68.71,1.47,1.04,2.45,1.04,1.21,0,2.1-.56,2.91-2.35l.71-1.59-5.94-13.14h1.34l5.28,11.8,5.28-11.8h1.29Z"/><path d="m186.06,10.09v17.68h-1.29v-8.41h-11.82v8.41h-1.29V10.09h1.29v8.13h11.82v-8.13h1.29Z"/><path d="m190.38,21.18c0-3.92,2.8-6.69,6.59-6.69s6.59,2.78,6.59,6.69-2.8,6.69-6.59,6.69-6.59-2.78-6.59-6.69Zm11.9,0c0-3.31-2.27-5.56-5.3-5.56s-5.3,2.25-5.3,5.56,2.27,5.56,5.3,5.56,5.3-2.25,5.3-5.56Z"/><path d="m229.15,20.07v7.7h-1.26v-7.6c0-2.98-1.54-4.55-4.12-4.55-2.98,0-4.82,2-4.82,5.13v7.02h-1.26v-7.6c0-2.98-1.54-4.55-4.12-4.55-2.98,0-4.82,2-4.82,5.13v7.02h-1.26v-13.19h1.21v2.83c.86-1.84,2.65-2.93,5.05-2.93s4.12,1.09,4.82,3.18c.86-1.92,2.78-3.18,5.33-3.18,3.18,0,5.25,1.89,5.25,5.58Z"/><path d="m245.52,21.48h-11.34c.13,3.13,2.42,5.25,5.58,5.25,1.67,0,3.21-.61,4.22-1.84l.73.83c-1.16,1.41-2.98,2.15-4.98,2.15-3.99,0-6.79-2.78-6.79-6.69s2.7-6.69,6.32-6.69,6.29,2.73,6.29,6.64c0,.1-.03.23-.03.35Zm-11.32-.99h10.1c-.18-2.85-2.25-4.9-5.05-4.9s-4.85,2.02-5.05,4.9Z"/><path d="m247.52,26.18l.58-1.01c1.01.86,2.8,1.59,4.75,1.59,2.78,0,3.89-.99,3.89-2.48,0-3.84-8.74-1.01-8.74-6.19,0-2,1.67-3.61,5-3.61,1.67,0,3.49.5,4.52,1.29l-.58,1.01c-1.11-.81-2.55-1.19-3.97-1.19-2.58,0-3.71,1.06-3.71,2.48,0,3.97,8.74,1.16,8.74,6.19,0,2.15-1.84,3.61-5.2,3.61-2.17,0-4.24-.73-5.28-1.69Z"/></g></g></g></svg>